<mxfile host="app.diagrams.net" modified="2020-10-27T14:09:07.047Z" agent="5.0 (Windows NT 10.0; Win64; x64) AppleWebKit/537.36 (KHTML, like Gecko) Chrome/86.0.4240.111 Safari/537.36" etag="xK1Tq1Vu54K8AVtRUg9i" version="13.8.4" type="github">
  <diagram id="C5RBs43oDa-KdzZeNtuy" name="Page-1">
    <mxGraphModel dx="1929" dy="582" grid="1" gridSize="10" guides="1" tooltips="1" connect="1" arrows="1" fold="1" page="1" pageScale="1" pageWidth="827" pageHeight="1169" math="0" shadow="0" extFonts="Permanent Marker^https://fonts.googleapis.com/css?family=Permanent+Marker">
      <root>
        <mxCell id="WIyWlLk6GJQsqaUBKTNV-0" />
        <mxCell id="WIyWlLk6GJQsqaUBKTNV-1" parent="WIyWlLk6GJQsqaUBKTNV-0" />
        <mxCell id="ZTXxlN9pE1zs2bqebm9W-41" value="" style="edgeStyle=none;rounded=0;orthogonalLoop=1;jettySize=auto;html=1;endArrow=none;endFill=0;" parent="WIyWlLk6GJQsqaUBKTNV-1" source="ZTXxlN9pE1zs2bqebm9W-3" target="ZTXxlN9pE1zs2bqebm9W-23" edge="1">
          <mxGeometry relative="1" as="geometry" />
        </mxCell>
        <mxCell id="ZTXxlN9pE1zs2bqebm9W-3" value="Cliente" style="ellipse;whiteSpace=wrap;html=1;" parent="WIyWlLk6GJQsqaUBKTNV-1" vertex="1">
          <mxGeometry x="150" y="90" width="80" height="70" as="geometry" />
        </mxCell>
        <mxCell id="ZTXxlN9pE1zs2bqebm9W-34" style="edgeStyle=none;rounded=0;orthogonalLoop=1;jettySize=auto;html=1;" parent="WIyWlLk6GJQsqaUBKTNV-1" source="ZTXxlN9pE1zs2bqebm9W-22" target="ZTXxlN9pE1zs2bqebm9W-32" edge="1">
          <mxGeometry relative="1" as="geometry" />
        </mxCell>
        <mxCell id="ZTXxlN9pE1zs2bqebm9W-60" style="edgeStyle=none;rounded=0;orthogonalLoop=1;jettySize=auto;html=1;entryX=0.5;entryY=0;entryDx=0;entryDy=0;startArrow=none;startFill=0;endArrow=classic;endFill=1;" parent="WIyWlLk6GJQsqaUBKTNV-1" source="ZTXxlN9pE1zs2bqebm9W-22" target="ZTXxlN9pE1zs2bqebm9W-59" edge="1">
          <mxGeometry relative="1" as="geometry" />
        </mxCell>
        <mxCell id="ZTXxlN9pE1zs2bqebm9W-64" style="edgeStyle=none;rounded=0;orthogonalLoop=1;jettySize=auto;html=1;startArrow=none;startFill=0;endArrow=classic;endFill=1;" parent="WIyWlLk6GJQsqaUBKTNV-1" source="ZTXxlN9pE1zs2bqebm9W-22" target="ZTXxlN9pE1zs2bqebm9W-62" edge="1">
          <mxGeometry relative="1" as="geometry" />
        </mxCell>
        <mxCell id="ZTXxlN9pE1zs2bqebm9W-22" value="Pedido" style="ellipse;whiteSpace=wrap;html=1;aspect=fixed;" parent="WIyWlLk6GJQsqaUBKTNV-1" vertex="1">
          <mxGeometry x="150" y="330" width="80" height="80" as="geometry" />
        </mxCell>
        <mxCell id="ZTXxlN9pE1zs2bqebm9W-24" style="edgeStyle=none;rounded=0;orthogonalLoop=1;jettySize=auto;html=1;" parent="WIyWlLk6GJQsqaUBKTNV-1" source="ZTXxlN9pE1zs2bqebm9W-23" target="ZTXxlN9pE1zs2bqebm9W-22" edge="1">
          <mxGeometry relative="1" as="geometry" />
        </mxCell>
        <mxCell id="ZTXxlN9pE1zs2bqebm9W-25" style="edgeStyle=none;rounded=0;orthogonalLoop=1;jettySize=auto;html=1;entryX=0.5;entryY=1;entryDx=0;entryDy=0;startArrow=classic;startFill=1;endArrow=none;endFill=0;" parent="WIyWlLk6GJQsqaUBKTNV-1" source="ZTXxlN9pE1zs2bqebm9W-23" target="ZTXxlN9pE1zs2bqebm9W-3" edge="1">
          <mxGeometry relative="1" as="geometry" />
        </mxCell>
        <mxCell id="ZTXxlN9pE1zs2bqebm9W-23" value="Genera" style="rounded=1;whiteSpace=wrap;html=1;" parent="WIyWlLk6GJQsqaUBKTNV-1" vertex="1">
          <mxGeometry x="155" y="230" width="70" height="40" as="geometry" />
        </mxCell>
        <mxCell id="ZTXxlN9pE1zs2bqebm9W-35" style="edgeStyle=none;rounded=0;orthogonalLoop=1;jettySize=auto;html=1;" parent="WIyWlLk6GJQsqaUBKTNV-1" source="ZTXxlN9pE1zs2bqebm9W-32" target="ZTXxlN9pE1zs2bqebm9W-33" edge="1">
          <mxGeometry relative="1" as="geometry" />
        </mxCell>
        <mxCell id="-tXZ_z239xbPI7GglFV8-2" style="edgeStyle=orthogonalEdgeStyle;rounded=0;orthogonalLoop=1;jettySize=auto;html=1;entryX=0.5;entryY=1;entryDx=0;entryDy=0;" parent="WIyWlLk6GJQsqaUBKTNV-1" source="ZTXxlN9pE1zs2bqebm9W-32" target="-tXZ_z239xbPI7GglFV8-0" edge="1">
          <mxGeometry relative="1" as="geometry" />
        </mxCell>
        <mxCell id="-tXZ_z239xbPI7GglFV8-3" style="edgeStyle=orthogonalEdgeStyle;rounded=0;orthogonalLoop=1;jettySize=auto;html=1;entryX=0.5;entryY=0;entryDx=0;entryDy=0;" parent="WIyWlLk6GJQsqaUBKTNV-1" source="ZTXxlN9pE1zs2bqebm9W-32" target="-tXZ_z239xbPI7GglFV8-1" edge="1">
          <mxGeometry relative="1" as="geometry" />
        </mxCell>
        <mxCell id="ZTXxlN9pE1zs2bqebm9W-32" value="Tiene" style="rounded=1;whiteSpace=wrap;html=1;" parent="WIyWlLk6GJQsqaUBKTNV-1" vertex="1">
          <mxGeometry x="320" y="350" width="70" height="40" as="geometry" />
        </mxCell>
        <mxCell id="ZTXxlN9pE1zs2bqebm9W-43" style="edgeStyle=none;rounded=0;orthogonalLoop=1;jettySize=auto;html=1;entryX=0.5;entryY=0;entryDx=0;entryDy=0;startArrow=none;startFill=0;endArrow=classic;endFill=1;" parent="WIyWlLk6GJQsqaUBKTNV-1" source="ZTXxlN9pE1zs2bqebm9W-33" target="ZTXxlN9pE1zs2bqebm9W-42" edge="1">
          <mxGeometry relative="1" as="geometry" />
        </mxCell>
        <mxCell id="ZTXxlN9pE1zs2bqebm9W-75" style="edgeStyle=entityRelationEdgeStyle;rounded=0;orthogonalLoop=1;jettySize=auto;html=1;entryX=0;entryY=0.5;entryDx=0;entryDy=0;startArrow=none;startFill=0;endArrow=classic;endFill=1;" parent="WIyWlLk6GJQsqaUBKTNV-1" source="ZTXxlN9pE1zs2bqebm9W-33" target="ZTXxlN9pE1zs2bqebm9W-70" edge="1">
          <mxGeometry relative="1" as="geometry" />
        </mxCell>
        <mxCell id="ZTXxlN9pE1zs2bqebm9W-33" value="Pizza" style="ellipse;whiteSpace=wrap;html=1;aspect=fixed;" parent="WIyWlLk6GJQsqaUBKTNV-1" vertex="1">
          <mxGeometry x="567" y="335" width="80" height="80" as="geometry" />
        </mxCell>
        <mxCell id="ZTXxlN9pE1zs2bqebm9W-48" style="edgeStyle=entityRelationEdgeStyle;orthogonalLoop=1;jettySize=auto;html=1;entryX=0;entryY=0.5;entryDx=0;entryDy=0;startArrow=none;startFill=0;endArrow=classic;endFill=1;exitX=1;exitY=0.5;exitDx=0;exitDy=0;strokeColor=none;rounded=0;" parent="WIyWlLk6GJQsqaUBKTNV-1" source="ZTXxlN9pE1zs2bqebm9W-33" target="ZTXxlN9pE1zs2bqebm9W-70" edge="1">
          <mxGeometry relative="1" as="geometry">
            <mxPoint x="717" y="515" as="targetPoint" />
          </mxGeometry>
        </mxCell>
        <mxCell id="ZTXxlN9pE1zs2bqebm9W-42" value="Tiene 1 o 2" style="rounded=1;whiteSpace=wrap;html=1;" parent="WIyWlLk6GJQsqaUBKTNV-1" vertex="1">
          <mxGeometry x="572" y="445" width="70" height="40" as="geometry" />
        </mxCell>
        <mxCell id="ZTXxlN9pE1zs2bqebm9W-51" style="edgeStyle=none;rounded=0;orthogonalLoop=1;jettySize=auto;html=1;entryX=1;entryY=0;entryDx=0;entryDy=0;startArrow=classic;startFill=1;endArrow=none;endFill=0;" parent="WIyWlLk6GJQsqaUBKTNV-1" source="ZTXxlN9pE1zs2bqebm9W-50" target="ZTXxlN9pE1zs2bqebm9W-32" edge="1">
          <mxGeometry relative="1" as="geometry" />
        </mxCell>
        <mxCell id="ZTXxlN9pE1zs2bqebm9W-53" style="edgeStyle=none;rounded=0;orthogonalLoop=1;jettySize=auto;html=1;entryX=0;entryY=0.5;entryDx=0;entryDy=0;startArrow=none;startFill=0;endArrow=classic;endFill=1;" parent="WIyWlLk6GJQsqaUBKTNV-1" source="ZTXxlN9pE1zs2bqebm9W-50" target="ZTXxlN9pE1zs2bqebm9W-52" edge="1">
          <mxGeometry relative="1" as="geometry" />
        </mxCell>
        <mxCell id="ZTXxlN9pE1zs2bqebm9W-50" value="Empanadas" style="ellipse;whiteSpace=wrap;html=1;aspect=fixed;" parent="WIyWlLk6GJQsqaUBKTNV-1" vertex="1">
          <mxGeometry x="572" y="185" width="80" height="80" as="geometry" />
        </mxCell>
        <mxCell id="ZTXxlN9pE1zs2bqebm9W-78" style="rounded=0;orthogonalLoop=1;jettySize=auto;html=1;entryX=0.5;entryY=0;entryDx=0;entryDy=0;startArrow=none;startFill=0;endArrow=classic;endFill=1;exitX=0.5;exitY=1;exitDx=0;exitDy=0;" parent="WIyWlLk6GJQsqaUBKTNV-1" source="ZTXxlN9pE1zs2bqebm9W-52" target="ZTXxlN9pE1zs2bqebm9W-76" edge="1">
          <mxGeometry relative="1" as="geometry" />
        </mxCell>
        <mxCell id="ZTXxlN9pE1zs2bqebm9W-52" value="Tiene" style="rounded=1;whiteSpace=wrap;html=1;" parent="WIyWlLk6GJQsqaUBKTNV-1" vertex="1">
          <mxGeometry x="717" y="205" width="70" height="40" as="geometry" />
        </mxCell>
        <mxCell id="ZTXxlN9pE1zs2bqebm9W-56" style="edgeStyle=none;rounded=0;orthogonalLoop=1;jettySize=auto;html=1;entryX=0.5;entryY=1;entryDx=0;entryDy=0;startArrow=none;startFill=0;endArrow=classic;endFill=1;exitX=0.5;exitY=0;exitDx=0;exitDy=0;" parent="WIyWlLk6GJQsqaUBKTNV-1" source="ZTXxlN9pE1zs2bqebm9W-52" edge="1">
          <mxGeometry relative="1" as="geometry">
            <mxPoint x="657" y="235" as="sourcePoint" />
            <mxPoint x="752" y="155" as="targetPoint" />
          </mxGeometry>
        </mxCell>
        <mxCell id="ZTXxlN9pE1zs2bqebm9W-57" style="edgeStyle=none;rounded=0;orthogonalLoop=1;jettySize=auto;html=1;entryX=0.5;entryY=0;entryDx=0;entryDy=0;startArrow=none;startFill=0;endArrow=classic;endFill=1;" parent="WIyWlLk6GJQsqaUBKTNV-1" target="ZTXxlN9pE1zs2bqebm9W-68" edge="1">
          <mxGeometry relative="1" as="geometry">
            <mxPoint x="747" y="245" as="sourcePoint" />
            <mxPoint x="752" y="285" as="targetPoint" />
          </mxGeometry>
        </mxCell>
        <mxCell id="ZTXxlN9pE1zs2bqebm9W-58" value="Administrador" style="ellipse;whiteSpace=wrap;html=1;aspect=fixed;" parent="WIyWlLk6GJQsqaUBKTNV-1" vertex="1">
          <mxGeometry x="145" y="585" width="90" height="90" as="geometry" />
        </mxCell>
        <mxCell id="ZTXxlN9pE1zs2bqebm9W-61" style="edgeStyle=none;rounded=0;orthogonalLoop=1;jettySize=auto;html=1;entryX=0.5;entryY=0;entryDx=0;entryDy=0;startArrow=none;startFill=0;endArrow=classic;endFill=1;" parent="WIyWlLk6GJQsqaUBKTNV-1" source="ZTXxlN9pE1zs2bqebm9W-59" target="ZTXxlN9pE1zs2bqebm9W-58" edge="1">
          <mxGeometry relative="1" as="geometry" />
        </mxCell>
        <mxCell id="ZTXxlN9pE1zs2bqebm9W-59" value="Completado por" style="rounded=1;whiteSpace=wrap;html=1;" parent="WIyWlLk6GJQsqaUBKTNV-1" vertex="1">
          <mxGeometry x="155" y="480" width="70" height="40" as="geometry" />
        </mxCell>
        <mxCell id="ZTXxlN9pE1zs2bqebm9W-66" style="edgeStyle=none;rounded=0;orthogonalLoop=1;jettySize=auto;html=1;entryX=1;entryY=0.5;entryDx=0;entryDy=0;startArrow=none;startFill=0;endArrow=classic;endFill=1;" parent="WIyWlLk6GJQsqaUBKTNV-1" source="ZTXxlN9pE1zs2bqebm9W-62" target="ZTXxlN9pE1zs2bqebm9W-65" edge="1">
          <mxGeometry relative="1" as="geometry" />
        </mxCell>
        <mxCell id="ZTXxlN9pE1zs2bqebm9W-62" value="Genera" style="rounded=1;whiteSpace=wrap;html=1;" parent="WIyWlLk6GJQsqaUBKTNV-1" vertex="1">
          <mxGeometry x="10" y="350" width="70" height="40" as="geometry" />
        </mxCell>
        <mxCell id="ZTXxlN9pE1zs2bqebm9W-65" value="Factura" style="ellipse;whiteSpace=wrap;html=1;aspect=fixed;" parent="WIyWlLk6GJQsqaUBKTNV-1" vertex="1">
          <mxGeometry x="-140" y="330" width="80" height="80" as="geometry" />
        </mxCell>
        <mxCell id="ZTXxlN9pE1zs2bqebm9W-68" value="&lt;span&gt;Cantidad Docenas&lt;/span&gt;" style="rounded=0;whiteSpace=wrap;html=1;gradientColor=none;" parent="WIyWlLk6GJQsqaUBKTNV-1" vertex="1">
          <mxGeometry x="667" y="285" width="60" height="40" as="geometry" />
        </mxCell>
        <mxCell id="ZTXxlN9pE1zs2bqebm9W-69" value="&lt;span&gt;Tipo&lt;/span&gt;" style="rounded=0;whiteSpace=wrap;html=1;gradientColor=none;" parent="WIyWlLk6GJQsqaUBKTNV-1" vertex="1">
          <mxGeometry x="722" y="110" width="60" height="40" as="geometry" />
        </mxCell>
        <mxCell id="ZTXxlN9pE1zs2bqebm9W-70" value="Tamaño" style="rounded=0;whiteSpace=wrap;html=1;gradientColor=none;" parent="WIyWlLk6GJQsqaUBKTNV-1" vertex="1">
          <mxGeometry x="722" y="405" width="60" height="40" as="geometry" />
        </mxCell>
        <mxCell id="ZTXxlN9pE1zs2bqebm9W-71" value="&lt;span&gt;Tipo&lt;/span&gt;" style="rounded=0;whiteSpace=wrap;html=1;gradientColor=none;" parent="WIyWlLk6GJQsqaUBKTNV-1" vertex="1">
          <mxGeometry x="577" y="525" width="60" height="40" as="geometry" />
        </mxCell>
        <mxCell id="ZTXxlN9pE1zs2bqebm9W-73" style="edgeStyle=none;rounded=0;orthogonalLoop=1;jettySize=auto;html=1;entryX=0.5;entryY=0;entryDx=0;entryDy=0;startArrow=none;startFill=0;endArrow=classic;endFill=1;" parent="WIyWlLk6GJQsqaUBKTNV-1" source="ZTXxlN9pE1zs2bqebm9W-42" target="ZTXxlN9pE1zs2bqebm9W-71" edge="1">
          <mxGeometry relative="1" as="geometry">
            <mxPoint x="607" y="485" as="sourcePoint" />
            <mxPoint x="607" y="585" as="targetPoint" />
          </mxGeometry>
        </mxCell>
        <mxCell id="ZTXxlN9pE1zs2bqebm9W-76" value="&lt;span&gt;Cantidad Individual&lt;/span&gt;" style="rounded=0;whiteSpace=wrap;html=1;gradientColor=none;" parent="WIyWlLk6GJQsqaUBKTNV-1" vertex="1">
          <mxGeometry x="767" y="285" width="60" height="40" as="geometry" />
        </mxCell>
        <mxCell id="-tXZ_z239xbPI7GglFV8-0" value="Hamburguesa" style="ellipse;whiteSpace=wrap;html=1;aspect=fixed;" parent="WIyWlLk6GJQsqaUBKTNV-1" vertex="1">
          <mxGeometry x="334" y="125" width="80" height="80" as="geometry" />
        </mxCell>
        <mxCell id="-tXZ_z239xbPI7GglFV8-1" value="Pollo" style="ellipse;whiteSpace=wrap;html=1;aspect=fixed;" parent="WIyWlLk6GJQsqaUBKTNV-1" vertex="1">
          <mxGeometry x="380" y="580" width="80" height="80" as="geometry" />
        </mxCell>
      </root>
    </mxGraphModel>
  </diagram>
</mxfile>
